<?xml version="1.0" encoding="utf-8"?>
<!-- Generator: Adobe Illustrator 23.1.0, SVG Export Plug-In . SVG Version: 6.00 Build 0)  -->
<svg version="1.1" id="Layer_1" xmlns="http://www.w3.org/2000/svg" xmlns:xlink="http://www.w3.org/1999/xlink" x="0px" y="0px"
	 viewBox="0 0 10 10.7" style="enable-background:new 0 0 10 10.7;" xml:space="preserve">
<style type="text/css">
	.st0{fill:#010500;}
</style>
<path id="Icon_metro-calendar" class="st0" d="M3.3,4h1.3v1.3H3.3V4z M5.3,4h1.3v1.3H5.3V4z M7.3,4h1.3v1.3H7.3V4z M1.3,8h1.3v1.3
	H1.3L1.3,8z M3.3,8h1.3v1.3H3.3L3.3,8z M5.3,8h1.3v1.3H5.3L5.3,8z M3.3,6h1.3v1.3H3.3L3.3,6z M5.3,6h1.3v1.3H5.3L5.3,6z M7.3,6h1.3
	v1.3H7.3V6z M1.3,6h1.3v1.3H1.3L1.3,6z M8.7,0v0.7H7.3V0H2.7v0.7H1.3V0H0v10.7h10V0L8.7,0L8.7,0z M9.3,10H0.7V2.7h8.7V10z"/>
</svg>
