<?xml version="1.0" encoding="utf-8"?>
<!-- Generator: Adobe Illustrator 23.1.0, SVG Export Plug-In . SVG Version: 6.00 Build 0)  -->
<svg version="1.1" id="Layer_1" xmlns="http://www.w3.org/2000/svg" xmlns:xlink="http://www.w3.org/1999/xlink" x="0px" y="0px"
	 viewBox="0 0 15 13.9" style="enable-background:new 0 0 15 13.9;" xml:space="preserve">
<style type="text/css">
	.st0{fill:#FFFFFF;}
</style>
<g>
	<path d="M14.6,4.7H0.4C0.2,4.7,0,4.5,0,4.3V4c0-0.2,0.2-0.4,0.4-0.4h14.2C14.8,3.6,15,3.7,15,4v0.3C15,4.5,14.8,4.7,14.6,4.7z"/>
	<g>
		<circle cx="6.6" cy="4.1" r="1.6"/>
		<circle class="st0" cx="6.6" cy="4.1" r="1.1"/>
	</g>
</g>
<g>
	<path d="M14.6,7.4H0.4C0.2,7.4,0,7.2,0,7V6.7c0-0.2,0.2-0.4,0.4-0.4h14.2c0.2,0,0.4,0.2,0.4,0.4V7C15,7.2,14.8,7.4,14.6,7.4z"/>
	<g>
		<circle cx="9.3" cy="6.9" r="1.6"/>
		<circle class="st0" cx="9.3" cy="6.9" r="1.1"/>
	</g>
</g>
<g>
	<path d="M14.6,10.1H0.4C0.2,10.1,0,9.9,0,9.7V9.4C0,9.2,0.2,9,0.4,9h14.2C14.8,9,15,9.2,15,9.4v0.3C15,9.9,14.8,10.1,14.6,10.1z"/>
	<g>
		<circle cx="4.2" cy="9.5" r="1.6"/>
		<circle class="st0" cx="4.2" cy="9.5" r="1.1"/>
	</g>
</g>
</svg>
