<svg id="Icon_material-pets" data-name="Icon material-pets" xmlns="http://www.w3.org/2000/svg" width="16" height="15.204" viewBox="0 0 16 15.204">
  <path id="Path_10" data-name="Path 10" d="M7.176,12.588A2.088,2.088,0,1,1,5.088,10.5a2.088,2.088,0,0,1,2.088,2.088Z" transform="translate(-3 -7.35)" fill="rgba(0,0,0,0.11)"/>
  <path id="Path_11" data-name="Path 11" d="M13.926,6.588A2.088,2.088,0,1,1,11.838,4.5,2.088,2.088,0,0,1,13.926,6.588Z" transform="translate(-6.203 -4.5)" fill="rgba(0,0,0,0.11)"/>
  <path id="Path_12" data-name="Path 12" d="M22.926,6.588A2.088,2.088,0,1,1,20.838,4.5a2.088,2.088,0,0,1,2.088,2.088Z" transform="translate(-10.473 -4.5)" fill="rgba(0,0,0,0.11)"/>
  <path id="Path_13" data-name="Path 13" d="M29.676,12.588A2.088,2.088,0,1,1,27.588,10.5a2.088,2.088,0,0,1,2.088,2.088Z" transform="translate(-13.676 -7.35)" fill="rgba(0,0,0,0.11)"/>
  <path id="Path_14" data-name="Path 14" d="M16.55,19.392c-.688-.852-1.266-1.579-1.962-2.431a3.381,3.381,0,0,0-1.385-1.1,1.536,1.536,0,0,0-.261-.075,3.774,3.774,0,0,0-.617-.033,3.147,3.147,0,0,0-.625.042,1.536,1.536,0,0,0-.261.075,3.433,3.433,0,0,0-1.385,1.1c-.688.852-1.266,1.579-1.962,2.431-1.036,1.094-2.31,2.305-2.073,4a2.559,2.559,0,0,0,1.843,1.938c.578.125,2.421-.368,4.383-.368h.142c1.962,0,3.806.484,4.383.368A2.571,2.571,0,0,0,18.615,23.4c.245-1.7-1.029-2.915-2.065-4.009Z" transform="translate(-4.325 -10.156)" fill="rgba(0,0,0,0.11)"/>
</svg>
